<mxfile host="65bd71144e">
    <diagram id="ExbBLwJdd0pnWKrKxO5R" name="Página-1">
        <mxGraphModel dx="816" dy="574" grid="0" gridSize="10" guides="1" tooltips="1" connect="1" arrows="1" fold="1" page="1" pageScale="1" pageWidth="1169" pageHeight="827" background="#283618" math="0" shadow="0">
            <root>
                <mxCell id="0"/>
                <mxCell id="1" parent="0"/>
                <mxCell id="4Dy7dP7VtOQztMiVR5ML-17" style="edgeStyle=orthogonalEdgeStyle;rounded=0;orthogonalLoop=1;jettySize=auto;html=1;labelBackgroundColor=#283618;strokeColor=#DDA15E;fontColor=#FEFAE0;" parent="1" source="4Dy7dP7VtOQztMiVR5ML-1" edge="1">
                    <mxGeometry relative="1" as="geometry">
                        <mxPoint x="350" y="290" as="targetPoint"/>
                    </mxGeometry>
                </mxCell>
                <mxCell id="4Dy7dP7VtOQztMiVR5ML-23" style="edgeStyle=orthogonalEdgeStyle;rounded=0;orthogonalLoop=1;jettySize=auto;html=1;labelBackgroundColor=#283618;strokeColor=#DDA15E;fontColor=#FEFAE0;" parent="1" source="4Dy7dP7VtOQztMiVR5ML-1" edge="1">
                    <mxGeometry relative="1" as="geometry">
                        <mxPoint x="220" y="550" as="targetPoint"/>
                    </mxGeometry>
                </mxCell>
                <mxCell id="4Dy7dP7VtOQztMiVR5ML-1" value="ADM" style="whiteSpace=wrap;html=1;aspect=fixed;fillColor=#BC6C25;strokeColor=#DDA15E;fontColor=#FEFAE0;" parent="1" vertex="1">
                    <mxGeometry x="180" y="250" width="80" height="80" as="geometry"/>
                </mxCell>
                <mxCell id="AAA7vgYy5jb8WxGrAu2T-6" style="edgeStyle=orthogonalEdgeStyle;rounded=0;orthogonalLoop=1;jettySize=auto;html=1;labelBackgroundColor=#283618;strokeColor=#DDA15E;fontColor=#FEFAE0;" parent="1" source="4Dy7dP7VtOQztMiVR5ML-4" edge="1">
                    <mxGeometry relative="1" as="geometry">
                        <mxPoint x="580" y="288" as="targetPoint"/>
                    </mxGeometry>
                </mxCell>
                <mxCell id="AAA7vgYy5jb8WxGrAu2T-17" style="edgeStyle=orthogonalEdgeStyle;rounded=0;orthogonalLoop=1;jettySize=auto;html=1;labelBackgroundColor=#283618;strokeColor=#DDA15E;fontColor=#FEFAE0;" parent="1" source="4Dy7dP7VtOQztMiVR5ML-4" edge="1">
                    <mxGeometry relative="1" as="geometry">
                        <mxPoint x="452.5" y="550" as="targetPoint"/>
                    </mxGeometry>
                </mxCell>
                <mxCell id="4Dy7dP7VtOQztMiVR5ML-4" value="Avaliador" style="whiteSpace=wrap;html=1;aspect=fixed;fillColor=#BC6C25;strokeColor=#DDA15E;fontColor=#FEFAE0;" parent="1" vertex="1">
                    <mxGeometry x="415" y="250" width="75" height="75" as="geometry"/>
                </mxCell>
                <mxCell id="4Dy7dP7VtOQztMiVR5ML-5" value="&lt;h1&gt;Fluxo ADM&lt;/h1&gt;&lt;p&gt;Passo a passo:&lt;/p&gt;&lt;p&gt;1) Logar no ambiente web :&lt;br&gt;&lt;span&gt;2) Acessar o menu de feedbacks&lt;br&gt;&lt;/span&gt;&lt;span&gt;3) Clicar no botão de &quot;Criar feedback:&lt;/span&gt;&lt;/p&gt;&lt;p&gt;&lt;span&gt;Regras:&lt;/span&gt;&lt;/p&gt;&lt;p&gt;&lt;span&gt;A) Todos os campos devem ser obrigatórios&amp;nbsp;&lt;/span&gt;&lt;/p&gt;&lt;p&gt;&lt;span&gt;B) Deve ser possível somente enviar uma feedback de ( 1-n).&lt;/span&gt;&lt;/p&gt;&lt;p&gt;&lt;span&gt;C) Deve aparecer uma mensagem de feedback enviado com sucesso ao confirmar a publicação do mesmo.&lt;/span&gt;&lt;/p&gt;&lt;p&gt;&lt;span&gt;D) Os feedbacks devem aparecer em ordem aparecer decrescente&amp;nbsp;&lt;/span&gt;&lt;span&gt;ou seja o ultimo feedback criado deve aparecer no topo.&amp;nbsp;&lt;/span&gt;&lt;/p&gt;&lt;p&gt;E) As respostas podem ser cadastradas como obrigatórias ou não.&lt;/p&gt;&lt;p&gt;F) O filtro&amp;nbsp; &quot; Ativo&quot; deve vir como padrão ativo.&lt;/p&gt;&lt;p&gt;&lt;span&gt;&lt;br&gt;&lt;/span&gt;&lt;/p&gt;&lt;p&gt;&lt;br&gt;&lt;/p&gt;&lt;p&gt;&lt;br&gt;&lt;/p&gt;" style="text;html=1;strokeColor=none;fillColor=none;spacing=5;spacingTop=-20;whiteSpace=wrap;overflow=hidden;rounded=0;fontColor=#FEFAE0;" parent="1" vertex="1">
                    <mxGeometry x="125" y="560" width="190" height="580" as="geometry"/>
                </mxCell>
                <mxCell id="4Dy7dP7VtOQztMiVR5ML-6" value="&lt;h1&gt;Fluxo do Avaliador&lt;/h1&gt;&lt;p&gt;Passo a passo:&lt;/p&gt;&lt;p&gt;1) Logar no app :&lt;br&gt;2) Acessar o menu de feedback&lt;br&gt;3) Clicar em cima de uma enquete.para&amp;nbsp; visualizar a mesma.&lt;br&gt;&lt;/p&gt;&lt;p&gt;Regras:&lt;/p&gt;&lt;p&gt;&amp;nbsp;&lt;/p&gt;&lt;p&gt;&lt;br&gt;&lt;/p&gt;" style="text;html=1;strokeColor=none;fillColor=none;spacing=5;spacingTop=-20;whiteSpace=wrap;overflow=hidden;rounded=0;fontColor=#FEFAE0;" parent="1" vertex="1">
                    <mxGeometry x="400" y="560" width="190" height="600" as="geometry"/>
                </mxCell>
                <mxCell id="AAA7vgYy5jb8WxGrAu2T-18" style="edgeStyle=orthogonalEdgeStyle;rounded=0;orthogonalLoop=1;jettySize=auto;html=1;labelBackgroundColor=#283618;strokeColor=#DDA15E;fontColor=#FEFAE0;" parent="1" source="4Dy7dP7VtOQztMiVR5ML-7" edge="1">
                    <mxGeometry relative="1" as="geometry">
                        <mxPoint x="645" y="550" as="targetPoint"/>
                    </mxGeometry>
                </mxCell>
                <mxCell id="4Dy7dP7VtOQztMiVR5ML-7" value="Avaliado" style="whiteSpace=wrap;html=1;aspect=fixed;fillColor=#BC6C25;strokeColor=#DDA15E;fontColor=#FEFAE0;" parent="1" vertex="1">
                    <mxGeometry x="605" y="250" width="80" height="80" as="geometry"/>
                </mxCell>
                <mxCell id="AAA7vgYy5jb8WxGrAu2T-15" style="edgeStyle=orthogonalEdgeStyle;rounded=0;orthogonalLoop=1;jettySize=auto;html=1;entryX=0.01;entryY=0.123;entryDx=0;entryDy=0;entryPerimeter=0;labelBackgroundColor=#283618;strokeColor=#DDA15E;fontColor=#FEFAE0;" parent="1" source="4Dy7dP7VtOQztMiVR5ML-10" target="4Dy7dP7VtOQztMiVR5ML-1" edge="1">
                    <mxGeometry relative="1" as="geometry"/>
                </mxCell>
                <mxCell id="4Dy7dP7VtOQztMiVR5ML-10" value="Web" style="ellipse;whiteSpace=wrap;html=1;fillColor=#BC6C25;strokeColor=#DDA15E;fontColor=#FEFAE0;" parent="1" vertex="1">
                    <mxGeometry x="110" y="125" width="70" height="50" as="geometry"/>
                </mxCell>
                <mxCell id="4Dy7dP7VtOQztMiVR5ML-27" style="edgeStyle=orthogonalEdgeStyle;rounded=0;orthogonalLoop=1;jettySize=auto;html=1;entryX=0;entryY=0;entryDx=0;entryDy=0;labelBackgroundColor=#283618;strokeColor=#DDA15E;fontColor=#FEFAE0;" parent="1" source="4Dy7dP7VtOQztMiVR5ML-11" target="4Dy7dP7VtOQztMiVR5ML-4" edge="1">
                    <mxGeometry relative="1" as="geometry">
                        <mxPoint x="385" y="260" as="targetPoint"/>
                        <Array as="points">
                            <mxPoint x="385" y="250"/>
                        </Array>
                    </mxGeometry>
                </mxCell>
                <mxCell id="4Dy7dP7VtOQztMiVR5ML-11" value="App" style="ellipse;whiteSpace=wrap;html=1;fillColor=#BC6C25;strokeColor=#DDA15E;fontColor=#FEFAE0;" parent="1" vertex="1">
                    <mxGeometry x="290" y="130" width="70" height="50" as="geometry"/>
                </mxCell>
                <mxCell id="AAA7vgYy5jb8WxGrAu2T-2" style="edgeStyle=orthogonalEdgeStyle;rounded=0;orthogonalLoop=1;jettySize=auto;html=1;labelBackgroundColor=#283618;strokeColor=#DDA15E;fontColor=#FEFAE0;" parent="1" source="4Dy7dP7VtOQztMiVR5ML-12" edge="1">
                    <mxGeometry relative="1" as="geometry">
                        <mxPoint x="600" y="250" as="targetPoint"/>
                        <Array as="points">
                            <mxPoint x="555" y="250"/>
                        </Array>
                    </mxGeometry>
                </mxCell>
                <mxCell id="4Dy7dP7VtOQztMiVR5ML-12" value="App" style="ellipse;whiteSpace=wrap;html=1;fillColor=#BC6C25;strokeColor=#DDA15E;fontColor=#FEFAE0;" parent="1" vertex="1">
                    <mxGeometry x="520" y="130" width="70" height="50" as="geometry"/>
                </mxCell>
                <mxCell id="4Dy7dP7VtOQztMiVR5ML-26" style="edgeStyle=orthogonalEdgeStyle;rounded=0;orthogonalLoop=1;jettySize=auto;html=1;labelBackgroundColor=#283618;strokeColor=#DDA15E;fontColor=#FEFAE0;" parent="1" source="4Dy7dP7VtOQztMiVR5ML-20" edge="1">
                    <mxGeometry relative="1" as="geometry">
                        <mxPoint x="230" y="220" as="targetPoint"/>
                    </mxGeometry>
                </mxCell>
                <mxCell id="4Dy7dP7VtOQztMiVR5ML-20" value="Exibir uma mensagem de &quot;Feedback criado com sucesso.&quot;" style="rounded=1;whiteSpace=wrap;html=1;fillColor=#d5e8d4;strokeColor=#82b366;gradientColor=#97d077;fontColor=#000000;" parent="1" vertex="1">
                    <mxGeometry x="170" y="30" width="120" height="60" as="geometry"/>
                </mxCell>
                <mxCell id="4Dy7dP7VtOQztMiVR5ML-22" value="&lt;h1&gt;Fluxo do Avaliado&lt;/h1&gt;&lt;p&gt;Passo a passo:&lt;/p&gt;&lt;p&gt;1) Logar no ambiente web :&lt;br&gt;2) Acessar o menu de feedbacks&lt;br&gt;&lt;br&gt;&lt;/p&gt;" style="text;html=1;strokeColor=none;fillColor=none;spacing=5;spacingTop=-20;whiteSpace=wrap;overflow=hidden;rounded=0;fontColor=#FEFAE0;" parent="1" vertex="1">
                    <mxGeometry x="630" y="560" width="190" height="600" as="geometry"/>
                </mxCell>
                <mxCell id="4Dy7dP7VtOQztMiVR5ML-28" value="" style="rounded=0;whiteSpace=wrap;html=1;fillColor=#BC6C25;strokeColor=#DDA15E;fontColor=#FEFAE0;" parent="1" vertex="1">
                    <mxGeometry x="617" y="5" width="20" height="20" as="geometry"/>
                </mxCell>
                <mxCell id="4Dy7dP7VtOQztMiVR5ML-29" value="&amp;nbsp;- Novas implementações" style="text;html=1;align=center;verticalAlign=middle;resizable=0;points=[];autosize=1;fontColor=#FEFAE0;" parent="1" vertex="1">
                    <mxGeometry x="632" width="160" height="30" as="geometry"/>
                </mxCell>
                <mxCell id="4Dy7dP7VtOQztMiVR5ML-30" value="" style="rounded=0;whiteSpace=wrap;html=1;fillColor=#BC6C25;strokeColor=#DDA15E;fontColor=#FEFAE0;" parent="1" vertex="1">
                    <mxGeometry x="617" y="35" width="20" height="20" as="geometry"/>
                </mxCell>
                <mxCell id="4Dy7dP7VtOQztMiVR5ML-31" value="&amp;nbsp;- Fluxo atual&lt;br&gt;" style="text;html=1;align=center;verticalAlign=middle;resizable=0;points=[];autosize=1;fontColor=#FEFAE0;" parent="1" vertex="1">
                    <mxGeometry x="637" y="35" width="90" height="20" as="geometry"/>
                </mxCell>
                <mxCell id="PFmn3gRuxFwFFmJ2oq4U-3" value="" style="rounded=0;whiteSpace=wrap;html=1;fillColor=#BC6C25;strokeColor=#DDA15E;fontColor=#FEFAE0;" parent="1" vertex="1">
                    <mxGeometry x="617" y="65" width="20" height="20" as="geometry"/>
                </mxCell>
                <mxCell id="PFmn3gRuxFwFFmJ2oq4U-4" value="&amp;nbsp;- Pontos de atenção" style="text;html=1;align=center;verticalAlign=middle;resizable=0;points=[];autosize=1;fontColor=#FEFAE0;" parent="1" vertex="1">
                    <mxGeometry x="637" y="60" width="130" height="30" as="geometry"/>
                </mxCell>
                <mxCell id="AAA7vgYy5jb8WxGrAu2T-1" value="Atualmente está sendo possível cadastrar feedbacks de todos para todos, essa possíbilidade tem que ser retirada." style="rounded=1;whiteSpace=wrap;html=1;fillColor=#BC6C25;strokeColor=#DDA15E;fontColor=#FEFAE0;" parent="1" vertex="1">
                    <mxGeometry x="840" y="20" width="215" height="70" as="geometry"/>
                </mxCell>
                <mxCell id="AAA7vgYy5jb8WxGrAu2T-23" style="edgeStyle=orthogonalEdgeStyle;rounded=0;orthogonalLoop=1;jettySize=auto;html=1;labelBackgroundColor=#283618;strokeColor=#DDA15E;fontColor=#FEFAE0;" parent="1" source="AAA7vgYy5jb8WxGrAu2T-7" edge="1">
                    <mxGeometry relative="1" as="geometry">
                        <mxPoint x="450" y="360" as="targetPoint"/>
                        <Array as="points">
                            <mxPoint x="350" y="360"/>
                        </Array>
                    </mxGeometry>
                </mxCell>
                <mxCell id="AAA7vgYy5jb8WxGrAu2T-7" value="Exibir uma mensagem de Feedback respondido com sucesso" style="rounded=1;whiteSpace=wrap;html=1;fillColor=#d5e8d4;strokeColor=#82b366;gradientColor=#97d077;fontColor=#000000;" parent="1" vertex="1">
                    <mxGeometry x="295" y="380" width="120" height="60" as="geometry"/>
                </mxCell>
                <mxCell id="AAA7vgYy5jb8WxGrAu2T-24" style="edgeStyle=orthogonalEdgeStyle;rounded=0;orthogonalLoop=1;jettySize=auto;html=1;labelBackgroundColor=#283618;strokeColor=#DDA15E;fontColor=#FEFAE0;" parent="1" source="AAA7vgYy5jb8WxGrAu2T-9" edge="1">
                    <mxGeometry relative="1" as="geometry">
                        <mxPoint x="220" y="360" as="targetPoint"/>
                        <Array as="points">
                            <mxPoint x="145" y="360"/>
                        </Array>
                    </mxGeometry>
                </mxCell>
                <mxCell id="AAA7vgYy5jb8WxGrAu2T-9" value="Ajustar o botão &quot;Ativo&quot; deixando o mesmo como padrão ativado." style="rounded=1;whiteSpace=wrap;html=1;fillColor=#d5e8d4;strokeColor=#82b366;gradientColor=#97d077;fontColor=#000000;" parent="1" vertex="1">
                    <mxGeometry x="85" y="380" width="120" height="60" as="geometry"/>
                </mxCell>
                <mxCell id="AAA7vgYy5jb8WxGrAu2T-11" value="Atualmente o botão &quot;Ativo&quot; vem como padrão &quot;Inativo&quot;" style="rounded=1;whiteSpace=wrap;html=1;fillColor=#BC6C25;strokeColor=#DDA15E;fontColor=#FEFAE0;" parent="1" vertex="1">
                    <mxGeometry x="845" y="105" width="215" height="70" as="geometry"/>
                </mxCell>
                <mxCell id="AAA7vgYy5jb8WxGrAu2T-12" value="" style="rounded=0;whiteSpace=wrap;html=1;fillColor=#BC6C25;strokeColor=#DDA15E;fontColor=#FEFAE0;" parent="1" vertex="1">
                    <mxGeometry x="617" y="95" width="20" height="20" as="geometry"/>
                </mxCell>
                <mxCell id="AAA7vgYy5jb8WxGrAu2T-13" value="&amp;nbsp;- Pontos para serem dscutidos" style="text;html=1;align=center;verticalAlign=middle;resizable=0;points=[];autosize=1;fontColor=#FEFAE0;" parent="1" vertex="1">
                    <mxGeometry x="637" y="90" width="190" height="30" as="geometry"/>
                </mxCell>
                <mxCell id="AAA7vgYy5jb8WxGrAu2T-14" value="Atualmente os feedback chegam no app listados por nome de clientes. Verificar a possibilidade de chegar com o nome do feedback e dentro um menu com os cargos relacionados com o feedback criado." style="rounded=1;whiteSpace=wrap;html=1;fillColor=#BC6C25;strokeColor=#DDA15E;fontColor=#FEFAE0;" parent="1" vertex="1">
                    <mxGeometry x="845" y="210" width="215" height="100" as="geometry"/>
                </mxCell>
            </root>
        </mxGraphModel>
    </diagram>
    <diagram id="iL356ntk3AN1rZdQOCJW" name="Page-2">
        <mxGraphModel dx="816" dy="574" grid="0" gridSize="10" guides="1" tooltips="1" connect="1" arrows="1" fold="1" page="1" pageScale="1" pageWidth="1169" pageHeight="827" background="#9999FF" math="0" shadow="0">
            <root>
                <mxCell id="NQ4SJp7-bCjsqe-tAniU-0"/>
                <mxCell id="NQ4SJp7-bCjsqe-tAniU-1" parent="NQ4SJp7-bCjsqe-tAniU-0"/>
                <mxCell id="qgFgx3jlxGChYUnuYhrI-0" value="&lt;h1&gt;&lt;span&gt;Descrição&lt;/span&gt;&lt;/h1&gt;&lt;h1&gt;&lt;span style=&quot;font-size: 12px ; font-weight: normal&quot;&gt;Lorem ipsum dolor sit amet, consectetur adipisicing elit, sed do eiusmod tempor incididunt ut labore et dolore magna aliqua.&lt;/span&gt;&lt;br&gt;&lt;/h1&gt;" style="text;html=1;strokeColor=#3700CC;fillColor=#6a00ff;spacing=5;spacingTop=-20;whiteSpace=wrap;overflow=hidden;rounded=0;fontColor=#ffffff;" parent="NQ4SJp7-bCjsqe-tAniU-1" vertex="1">
                    <mxGeometry x="11" y="18" width="160" height="246" as="geometry"/>
                </mxCell>
                <mxCell id="qgFgx3jlxGChYUnuYhrI-1" value="&lt;b&gt;Passo-a Passo&lt;/b&gt;" style="text;html=1;strokeColor=none;fillColor=none;align=center;verticalAlign=middle;whiteSpace=wrap;rounded=0;strokeWidth=1;" parent="NQ4SJp7-bCjsqe-tAniU-1" vertex="1">
                    <mxGeometry x="23" y="301" width="60" height="30" as="geometry"/>
                </mxCell>
            </root>
        </mxGraphModel>
    </diagram>
</mxfile>